<svg id="Warstwa_1" data-name="Warstwa 1" xmlns="http://www.w3.org/2000/svg" viewBox="0 0 357.18 309.54"><defs><style>.cls-1{fill:#fff;}.cls-2{fill:#4bc1e9;}</style></defs><path class="cls-1" d="M335.19,210.69H102.87c-8.13,0-16.28.13-24.41,0a38.08,38.08,0,0,1-4.52-.37l3.32.45a49.87,49.87,0,0,1-12.63-3.43l3,1.26a42.91,42.91,0,0,1-9.11-5.28l2.53,2a38.56,38.56,0,0,1-6.82-6.81l2,2.53A40.87,40.87,0,0,1,51,192.08l1.26,3a52,52,0,0,1-3.33-12.58l.45,3.33a79.13,79.13,0,0,1,.13-20.57l-.44,3.32a62.15,62.15,0,0,1,4.13-15.81l-1.26,3a43.87,43.87,0,0,1,5.39-9.34l-2,2.53a37.21,37.21,0,0,1,6.66-6.67l-2.53,1.95a37.67,37.67,0,0,1,8.08-4.69l-3,1.26A41.11,41.11,0,0,1,74.88,138l-3.32.45a29.55,29.55,0,0,1,6.09-.29c4.29.33,8.7-2.62,10.79-6.2,2.37-4,2-8.54,0-12.61-.11-.22-.21-.45-.3-.68l1.26,3a32.4,32.4,0,0,1-2.1-8l.45,3.32a35.48,35.48,0,0,1,0-9.49l-.45,3.32a36.32,36.32,0,0,1,2.5-9l-1.26,3a41.16,41.16,0,0,1,5.13-8.67l-2,2.53a56.17,56.17,0,0,1,9.85-9.7L99,91a77.18,77.18,0,0,1,16.76-9.82l-3,1.26A50.4,50.4,0,0,1,125,78.94l-3.32.44a37.88,37.88,0,0,1,9.75-.07l-3.33-.44a33.93,33.93,0,0,1,8.52,2.32l-3-1.26a37.3,37.3,0,0,1,7.82,4.61l-2.53-2a44.25,44.25,0,0,1,7.82,7.89l-2-2.53a37.93,37.93,0,0,1,4.64,7.37c1.77,3.89,6.75,6.19,10.8,6.19s9-2.3,10.79-6.19a60.31,60.31,0,0,1,7.13-11.26l-2,2.53a73,73,0,0,1,13-13.08l-2.53,2a62.09,62.09,0,0,1,13.43-7.9l-3,1.26a58.37,58.37,0,0,1,14.67-4l-3.32.45a65.37,65.37,0,0,1,17.17.09l-3.32-.45a89.69,89.69,0,0,1,22.47,6.42l-3-1.26a105.37,105.37,0,0,1,23.15,13.28l-2.53-2a69.87,69.87,0,0,1,12.1,12l-2-2.53a55,55,0,0,1,7.05,11.94l-1.26-3a51.66,51.66,0,0,1,3.59,13.13l-.44-3.33a55.47,55.47,0,0,1-.05,14.62l.45-3.32a51.77,51.77,0,0,1-3.4,13l1.26-3c-.08.18-.15.36-.23.53-1.95,4.14-2.42,8.49,0,12.62,2,3.47,6.56,6.67,10.79,6.19a119.06,119.06,0,0,1,19.44-.37c3.39.18,6.78.49,10.14.93l-3.32-.44a86.42,86.42,0,0,1,22,5.7l-3-1.26a52.61,52.61,0,0,1,11.57,6.66l-2.53-1.95a39.71,39.71,0,0,1,6.88,6.83l-1.95-2.53a37,37,0,0,1,4.66,7.94l-1.26-3a41.17,41.17,0,0,1,2.79,10.39l-.45-3.32c.4,3.06.43,6.15.59,9.22a52.25,52.25,0,0,1-.38,9.52l.45-3.32A42.5,42.5,0,0,1,353.1,202l1.26-3a32,32,0,0,1-3.85,6.69l1.95-2.53a27.54,27.54,0,0,1-4.77,4.82l2.53-2a28.35,28.35,0,0,1-6.18,3.6l3-1.26a36.33,36.33,0,0,1-8.76,2.33l3.33-.45a50.81,50.81,0,0,1-6.4.41c-6.53,0-12.8,5.73-12.5,12.5s5.5,12.53,12.5,12.5a52.58,52.58,0,0,0,16.25-2.35,43.56,43.56,0,0,0,14.38-8c6.2-5.09,10.31-12.58,12.66-20.14,2.71-8.75,2.86-18.27,2-27.34s-3.15-17.9-8.38-25.33a55.36,55.36,0,0,0-18-16.45c-12.61-7.15-27.16-10-41.46-11a117.27,117.27,0,0,0-22,.14l-.36,0L301.08,144a65.15,65.15,0,0,0,5.83-25.78c.54-18.25-7.15-35.68-20-48.5-9-9-20.18-15.92-31.82-21-12.07-5.22-24.63-8.91-37.89-9-18.9-.21-36.7,7.33-50.46,20.11a90.12,90.12,0,0,0-12.63,14.93,56.92,56.92,0,0,0-4.54,7.58c0,.12-.11.24-.17.36H171a51.52,51.52,0,0,0-9.67-13.5A48.53,48.53,0,0,0,129,54.08a51.89,51.89,0,0,0-22,3.83A91.07,91.07,0,0,0,81.22,73.48c-10.84,9.35-17.88,22.33-18.74,36.68A43.9,43.9,0,0,0,66.85,132l10.8-18.8a44.83,44.83,0,0,0-13.45,1.48A48.91,48.91,0,0,0,39.58,129C29.21,140.49,25,155.39,24,170.56c-1,14.14,1.24,29.77,9.54,41.63a54.49,54.49,0,0,0,13.62,13.64,55.51,55.51,0,0,0,12.92,6.44,58.56,58.56,0,0,0,17.76,3.41c5.57.21,11.18,0,16.76,0h240.6c6.54,0,12.81-5.75,12.5-12.5S342.2,210.69,335.19,210.69Z" transform="translate(-23.78 -39.7)"/><path class="cls-2" d="M97,249.13c1.37,7.29-1.59,14.64-4.73,21.36-4.28,9.16-9,18.12-14.2,26.81-4.22,7.09-8.91,14.7-8.13,22.92a23.22,23.22,0,0,0,3.89,10.42,29.43,29.43,0,0,0,22.82,13.25,26.23,26.23,0,0,0,23.14-12.09c3.83-6.3,4.6-14.07,3.61-21.37s-3.63-14.26-6.24-21.15c-5.42-14.27-11-28.82-20.72-40.57" transform="translate(-23.78 -39.7)"/><path class="cls-2" d="M94.56,249.8c1.45,8.18-3,16.38-6.41,23.49Q82.51,284.92,75.89,296c-4,6.8-8.51,14.07-8.56,22.24,0,7.74,4.25,15.14,10,20.13a31.52,31.52,0,0,0,19.72,8,29.29,29.29,0,0,0,19.43-6.92c6-5,9-12.43,9.7-20.1.73-8.32-1.45-16.58-4.21-24.36s-5.64-15.26-8.86-22.71a111.53,111.53,0,0,0-11.21-20.59c-1.16-1.64-2.39-3.23-3.67-4.78a2.51,2.51,0,0,0-3.53,0,2.56,2.56,0,0,0,0,3.54c9.42,11.45,14.8,25.55,20,39.26,2.81,7.42,5.83,15.05,6.48,23,.56,6.83-.5,14.19-4.84,19.72a23.89,23.89,0,0,1-15.92,8.79,25.77,25.77,0,0,1-18-5.12c-5.17-3.78-9.63-10-10-16.58-.45-7.49,3.82-14.26,7.5-20.44q6.3-10.58,11.77-21.61c3.55-7.21,7.52-14.76,8.12-22.92a25.19,25.19,0,0,0-.37-6.13,2.54,2.54,0,0,0-3.08-1.75,2.57,2.57,0,0,0-1.75,3.08Z" transform="translate(-23.78 -39.7)"/><path class="cls-2" d="M197.28,258.16a79.15,79.15,0,0,1-9.95,43.51c-2.82,5-6.2,9.73-8.4,15s-3.11,11.49-.83,16.76c2.87,6.63,10.05,10.33,17.06,12,5.68,1.39,11.73,1.81,17.36.18,11.51-3.34,19.26-15.09,20.4-27s-3.33-23.82-9.8-33.92a90,90,0,0,0-27.25-27.26" transform="translate(-23.78 -39.7)"/><path class="cls-2" d="M194.78,258.16a76.92,76.92,0,0,1-2.27,23.94,82.22,82.22,0,0,1-9.65,22.22c-4.29,7.05-8.9,14.56-8.57,23.14.3,7.82,5.13,13.94,11.93,17.42a39.89,39.89,0,0,0,23.59,4,28.43,28.43,0,0,0,17.7-10.52,37.18,37.18,0,0,0,7.86-19.11c.9-8.08-.81-16.35-3.88-23.81C225.44,280.71,214.68,268,202,258.64c-1.57-1.15-3.18-2.25-4.81-3.31-2.72-1.74-5.23,2.58-2.53,4.32a86.5,86.5,0,0,1,29.47,31.68c6.51,12.23,9.5,27.37,2.23,39.94-2.95,5.11-7.46,9.57-13.1,11.58-7,2.49-15,1.47-21.82-1.11-5.74-2.17-11.08-6.37-12-12.79-1.07-7.63,3.27-14.72,7.06-20.95a92.85,92.85,0,0,0,9.92-21.19,81.82,81.82,0,0,0,3.55-22.94c0-1.91,0-3.81-.15-5.71-.19-3.2-5.19-3.22-5,0Z" transform="translate(-23.78 -39.7)"/><path class="cls-2" d="M290.66,260.33a82.37,82.37,0,0,0-9.25,62.49c1.6,6.22,4.12,12.5,9,16.68,7.73,6.62,20.77,5.66,27.45-2,6.48-7.45,6.38-18.84,2.81-28.05s-10-16.95-15.56-25.14a144.3,144.3,0,0,1-12.69-23.05" transform="translate(-23.78 -39.7)"/><path class="cls-2" d="M288.5,259.07a85.11,85.11,0,0,0-12,40.39,83.59,83.59,0,0,0,1.84,21.16c1.45,6.68,3.71,13.5,8.33,18.69,8.13,9.14,23.55,9.43,32.18.79,9.84-9.85,7.56-25.61,1.76-36.87-3.34-6.48-7.81-12.26-12-18.22A146.4,146.4,0,0,1,297,265.23q-1.26-2.61-2.42-5.25a2.52,2.52,0,0,0-3.42-.9,2.57,2.57,0,0,0-.9,3.42,144.72,144.72,0,0,0,10.17,19.18c3.7,5.87,8,11.35,11.76,17.15,6.25,9.56,12,22.61,6,33.74a16.7,16.7,0,0,1-11.86,8.54,17.55,17.55,0,0,1-13.66-2.95c-4.89-3.7-7.26-9.89-8.77-15.61a77.41,77.41,0,0,1-2.51-19.09,80.07,80.07,0,0,1,11.41-41.86c1.66-2.77-2.66-5.28-4.32-2.53Z" transform="translate(-23.78 -39.7)"/></svg>