<svg id="ad2e4782-c6b2-4978-97e3-cf4a0955ddb4" data-name="Warstwa 1" xmlns="http://www.w3.org/2000/svg" viewBox="0 0 238.9 333.13"><path d="M314.77,246.76c0,59.87-49.67,108.41-110.94,108.41s-111-48.54-111-108.41c0-59.35,80.38-140.3,110.17-207.19a.9.9,0,0,1,1.63,0C238,106.43,314.77,187.4,314.77,246.76Z" transform="translate(-84.38 -30.54)" style="fill:none;stroke:#fff;stroke-miterlimit:10;stroke-width:17px"/><path d="M233.56,168.57c.61.75,1.19,1.52,1.8,2.27-1.45-1.76-.45-.59-.16-.21l.87,1.16c1.12,1.49,2.21,3,3.27,4.54q3.06,4.46,5.83,9.1a163.06,163.06,0,0,1,9.94,19.71l-.75-1.79a168.32,168.32,0,0,1,11.58,42.36l-.27-2A164.36,164.36,0,0,1,267,271.4a7.55,7.55,0,0,0,7.5,7.5,7.64,7.64,0,0,0,7.5-7.5,173,173,0,0,0-22.46-91A168.31,168.31,0,0,0,244.17,158a7.53,7.53,0,0,0-5.3-2.2,7.66,7.66,0,0,0-5.31,2.2,7.55,7.55,0,0,0-2.19,5.3,8.64,8.64,0,0,0,2.19,5.31Z" transform="translate(-84.38 -30.54)" style="fill:#4bc1e9"/></svg>