<svg id="Warstwa_1" data-name="Warstwa 1" xmlns="http://www.w3.org/2000/svg" viewBox="0 0 330.67 234.12"><defs><style>.cls-1{fill:#fff;}.cls-2{fill:#4bc1e9;}</style></defs><path class="cls-1" d="M12.51,74.21H166.28c10,0,20.08.24,30.1,0,4.93-.15,9.85-.48,14.74-1.12,5.49-.71,11.18-1.37,16.41-3.29a36.79,36.79,0,0,0,8.23-3.92A33.19,33.19,0,0,0,244,57.72a29.61,29.61,0,0,0,3.72-7.57,33.6,33.6,0,0,0,1.6-8.66c.51-6.09-1.24-11.92-3.63-17.42a45.12,45.12,0,0,0-8.66-12.48A39.3,39.3,0,0,0,221.93,1.41,24.1,24.1,0,0,0,213.27,0a26.73,26.73,0,0,0-11,2.66,13.13,13.13,0,0,0-2.14,1.19,22.73,22.73,0,0,0-4.31,3.64c-2.18,2.59-3.66,5.35-3.66,8.84a12.73,12.73,0,0,0,3.66,8.84,12.58,12.58,0,0,0,8.84,3.66c3.15-.14,6.73-1.15,8.84-3.66A11.65,11.65,0,0,1,215,23.7l-2.53,2a12,12,0,0,1,2.46-1.45l-3,1.26a13.7,13.7,0,0,1,3.09-.83l-3.33.45a15.31,15.31,0,0,1,3.58,0l-3.34-.46a16.82,16.82,0,0,1,4.12,1.15l-3-1.26a24.19,24.19,0,0,1,4.91,3l-2.53-2A38.31,38.31,0,0,1,221.77,32l-2-2.53a34.34,34.34,0,0,1,4.37,7.38l-1.26-3a26.75,26.75,0,0,1,1.72,6.21l-.44-3.32a23.3,23.3,0,0,1,0,5.66l.44-3.32a20.92,20.92,0,0,1-1.42,5.5l1.26-3a18.35,18.35,0,0,1-2.28,3.84l2-2.53a18.13,18.13,0,0,1-2.78,2.69l2.53-2A22.21,22.21,0,0,1,219,46.4l3-1.26a57.5,57.5,0,0,1-14.23,3.3l3.32-.45c-12.55,1.64-25.23,1.17-37.85,1.17H12.51a13,13,0,0,0-8.84,3.66,12.51,12.51,0,0,0,0,17.68,13,13,0,0,0,8.84,3.66Z" transform="translate(-0.01 0)"/><path class="cls-2" d="M12.51,124.75q40.77,0,81.55.17t81.57.19q40.77,0,81.55-.26c10.76-.09,21.61.12,32.33-1a87.61,87.61,0,0,0,17.14-3.11,51.29,51.29,0,0,0,8.81-3.65,26,26,0,0,0,9.37-8.78c3.93-5.89,5.58-13.74,5.84-20.71a47.17,47.17,0,0,0-4.52-21.06c-5.38-12-17.42-21.23-30.15-24.12a48.74,48.74,0,0,0-10.49-1.24,12.88,12.88,0,0,0-8.84,3.66A12.68,12.68,0,0,0,273,53.68c.3,6.78,5.49,12.49,12.5,12.5a36.5,36.5,0,0,1,4.18.26L286.37,66a34.54,34.54,0,0,1,8.53,2.31l-3-1.26a35.81,35.81,0,0,1,7.63,4.47l-2.53-2a34.37,34.37,0,0,1,5.6,5.58l-2-2.53a33,33,0,0,1,4.1,7l-1.26-3a34.76,34.76,0,0,1,2.37,8.79L305.37,82a35.6,35.6,0,0,1,0,8.63l.44-3.32a32.54,32.54,0,0,1-2.08,7.87l1.26-3a20.5,20.5,0,0,1-2.34,4.19l2-2.53a12.61,12.61,0,0,1-2,2l2.53-2a23.15,23.15,0,0,1-4.78,2.62l3-1.26A58.32,58.32,0,0,1,288.93,99l3.32-.45a173.48,173.48,0,0,1-20.38,1.21c-8.82.12-17.65.17-26.47.22q-28.2.18-56.39.18-56.4,0-112.8-.25-31.83-.09-63.66-.11a12.88,12.88,0,0,0-8.84,3.66,12.68,12.68,0,0,0-3.66,8.84c.3,6.77,5.49,12.5,12.5,12.5Z" transform="translate(-0.01 0)"/><path class="cls-1" d="M12.51,181h120c13.17.05,26.35.28,39.52-.23,10.4-.39,20.85-1.62,31.24-.27l-3.32-.45a40.78,40.78,0,0,1,10.25,2.63l-3-1.26a22.92,22.92,0,0,1,4.87,2.81l-2.53-2a17.19,17.19,0,0,1,2.77,2.69l-2-2.53a14.12,14.12,0,0,1,1.65,2.84l-1.26-3a51.44,51.44,0,0,1,3.13,12.7l-.45-3.32a35.74,35.74,0,0,1,.13,8.89l.45-3.32a24.42,24.42,0,0,1-1.61,6l1.26-3a25.57,25.57,0,0,1-3,5.19l1.95-2.53a27.2,27.2,0,0,1-4.77,4.76l2.53-1.95a27.51,27.51,0,0,1-5.52,3.23l3-1.26a25.46,25.46,0,0,1-6.12,1.73l3.32-.45a24.84,24.84,0,0,1-6.56,0l3.33.45a52,52,0,0,1-12.42-3.48l3,1.26a25,25,0,0,1-5.31-3l2.53,2a15.37,15.37,0,0,1-2.48-2.49l2,2.53a11.47,11.47,0,0,1-1.26-2.17l1.26,3a11,11,0,0,1-.64-2.17c-.56-2.93-3.25-6-5.75-7.47a12.5,12.5,0,0,0-17.09,4.47v0a14,14,0,0,0-1.26,9.63c1.27,6.71,6.4,12.2,12.06,15.63a53.62,53.62,0,0,0,14.93,5.68,39.57,39.57,0,0,0,19.84.24,39.08,39.08,0,0,0,16-9,37.49,37.49,0,0,0,9.78-15c2.54-6.9,2-14.39.95-21.51a72.12,72.12,0,0,0-1.8-8.22,28.54,28.54,0,0,0-4-9.21,32.35,32.35,0,0,0-7.84-7.69,35.38,35.38,0,0,0-7.4-3.72c-4.55-1.89-9.37-2.56-14.24-3.15a85.52,85.52,0,0,0-11.76-.53c-9.32.13-18.62,1-28,1.13-11.77.19-23.55,0-35.33,0h-115a12.94,12.94,0,0,0-8.84,3.67,12.49,12.49,0,0,0,0,17.66h0A13,13,0,0,0,12.56,181Z" transform="translate(-0.01 0)"/></svg>